<svg width="25" height="24" viewBox="0 0 25 24" fill="none" xmlns="http://www.w3.org/2000/svg">
<path d="M6.9288 2.41303C7.20116 2.10095 7.16896 1.62717 6.85689 1.35481C6.54481 1.08245 6.07103 1.11464 5.79867 1.42672L4.50686 2.90689C3.7741 3.74649 3.35987 4.81701 3.33663 5.93116L3.27995 8.64882C3.27131 9.06294 3.60003 9.40566 4.01415 9.41429C4.42827 9.42293 4.77099 9.09422 4.77963 8.6801L4.8363 5.96244C4.8522 5.20012 5.13562 4.46767 5.63699 3.8932L6.9288 2.41303Z" fill="#0F172A"/>
<path fill-rule="evenodd" clip-rule="evenodd" d="M6.737 7.70081C6.8759 5.48007 8.71749 3.75006 10.9426 3.75006H11.5V3.00006C11.5 2.44778 11.9477 2.00006 12.5 2.00006C13.0523 2.00006 13.5 2.44778 13.5 3.00006V3.75006H14.0574C16.2825 3.75006 18.1241 5.48007 18.263 7.7008L18.484 11.2343C18.5682 12.5815 19.0205 13.8797 19.7916 14.9876C20.4882 15.9887 19.868 17.3713 18.6571 17.5166L15.25 17.9254V19.0001C15.25 20.5188 14.0188 21.7501 12.5 21.7501C10.9812 21.7501 9.74998 20.5188 9.74998 19.0001V17.9254L6.34285 17.5166C5.13192 17.3713 4.5117 15.9887 5.20839 14.9876C5.97945 13.8797 6.43173 12.5815 6.516 11.2343L6.737 7.70081ZM10.9426 5.25006C9.50956 5.25006 8.32353 6.36423 8.23407 7.79444L8.01307 11.3279C7.91168 12.949 7.36742 14.5113 6.43957 15.8445C6.38922 15.9168 6.43405 16.0168 6.52157 16.0273L10.2592 16.4758C11.7477 16.6544 13.2522 16.6544 14.7407 16.4758L18.4784 16.0273C18.5659 16.0168 18.6107 15.9168 18.5604 15.8445C17.6325 14.5113 17.0883 12.949 16.9869 11.3279L16.7659 7.79444C16.6764 6.36423 15.4904 5.25006 14.0574 5.25006H10.9426ZM12.5 20.2501C11.8096 20.2501 11.25 19.6904 11.25 19.0001V18.2501H13.75V19.0001C13.75 19.6904 13.1903 20.2501 12.5 20.2501Z" fill="#0F172A"/>
<path d="M18.1431 1.35481C17.831 1.62717 17.7988 2.10095 18.0712 2.41303L19.363 3.8932C19.8643 4.46767 20.1478 5.20012 20.1637 5.96244L20.2203 8.6801C20.229 9.09422 20.5717 9.42293 20.9858 9.41429C21.3999 9.40566 21.7287 9.06294 21.72 8.64882L21.6633 5.93116C21.6401 4.81701 21.2259 3.74649 20.4931 2.90689L19.2013 1.42672C18.9289 1.11464 18.4552 1.08245 18.1431 1.35481Z" fill="#0F172A"/>
</svg>
